<svg id="NEW_logo" data-name="NEW logo" xmlns="http://www.w3.org/2000/svg" viewBox="0 0 283.46 103.4"><defs><style>.cls-1{fill:#fff;}</style></defs><title>unity-logo</title><path class="cls-1" d="M98.45,57h0l6.28-10.88h0L93.81,5.3,53,16.23h0l-.06,0-6.3,10.91H34.11L4.27,57,34.12,86.85h0l0,0h12.6L53,97.77h0L93.81,108.7l10.93-40.77h0l0-.06ZM47.73,28.88l31.49-8.44L61,51.94H24.67Zm0,56.24L24.67,62.06H61L79.22,93.56ZM88,88.49,69.81,57,88,25.51,96.43,57Z" transform="translate(-4.27 -5.3)"/><path class="cls-1" d="M162.92,37.06h-10V59.52c0,5.9-2.42,10.59-9.53,10.59s-9.08-4.77-9.08-10.9V37.06h-10V61.72c0,7.26,2.32,17.63,15.94,17.71,7.49.08,11.26-3.56,12.69-6.81v6h10Z" transform="translate(-4.27 -5.3)"/><path class="cls-1" d="M166.5,78.57h10V55.21c0-5.83,2.49-10.52,9.53-10.59s9.08,4.77,9.08,11v23h10V53.09c0-7.34-2.49-17.71-16-17.78-7.42-.08-11.08,3.79-12.9,7,.08-2,.12-3.86.12-5.29H166.5Z" transform="translate(-4.27 -5.3)"/><path class="cls-1" d="M208.72,31.33h10V22.74h-10Zm0,47.24h10V37.06h-10Z" transform="translate(-4.27 -5.3)"/><path class="cls-1" d="M228.76,78.57h10V44.21h6.92l-2.94-7.16h-4V22.74h-10V37.06h-7.16v7.16h7.16Z" transform="translate(-4.27 -5.3)"/><path class="cls-1" d="M255.27,92.88h10.59l21.87-55.83H277.14l-10,27.62L257,37.06H246.42l15.66,39.83Z" transform="translate(-4.27 -5.3)"/></svg>